<mxfile modified="2024-05-05T15:28:15.843Z" host="Electron" agent="Mozilla/5.0 (Windows NT 10.0; Win64; x64) AppleWebKit/537.36 (KHTML, like Gecko) draw.io/24.2.5 Chrome/120.0.6099.109 Electron/28.1.0 Safari/537.36" etag="8s4eABN3UQO01OYUz2x_" version="24.2.5" type="device">
  <diagram id="Ht1M8jgEwFfnCIfOTk4-" name="Page-1">
    <mxGraphModel dx="2390" dy="1393" grid="1" gridSize="10" guides="1" tooltips="1" connect="1" arrows="1" fold="1" page="1" pageScale="1" pageWidth="1169" pageHeight="827" math="0" shadow="0">
      <root>
        <mxCell id="0" />
        <mxCell id="1" parent="0" />
        <mxCell id="4yiWmQWdM_SpUFUc-BwU-1" value="" style="sketch=0;outlineConnect=0;fontColor=#232F3E;gradientColor=none;fillColor=#232F3D;strokeColor=none;dashed=0;verticalLabelPosition=bottom;verticalAlign=top;align=center;html=1;fontSize=12;fontStyle=0;aspect=fixed;pointerEvents=1;shape=mxgraph.aws4.authenticated_user;" vertex="1" parent="1">
          <mxGeometry x="30" y="320" width="78" height="78" as="geometry" />
        </mxCell>
        <mxCell id="4yiWmQWdM_SpUFUc-BwU-7" style="edgeStyle=orthogonalEdgeStyle;rounded=0;orthogonalLoop=1;jettySize=auto;html=1;entryX=0;entryY=0.5;entryDx=0;entryDy=0;" edge="1" parent="1" source="4yiWmQWdM_SpUFUc-BwU-2" target="4yiWmQWdM_SpUFUc-BwU-3">
          <mxGeometry relative="1" as="geometry" />
        </mxCell>
        <mxCell id="4yiWmQWdM_SpUFUc-BwU-8" style="edgeStyle=orthogonalEdgeStyle;rounded=0;orthogonalLoop=1;jettySize=auto;html=1;entryX=0;entryY=0.5;entryDx=0;entryDy=0;" edge="1" parent="1" source="4yiWmQWdM_SpUFUc-BwU-2" target="4yiWmQWdM_SpUFUc-BwU-4">
          <mxGeometry relative="1" as="geometry" />
        </mxCell>
        <mxCell id="4yiWmQWdM_SpUFUc-BwU-9" style="edgeStyle=orthogonalEdgeStyle;rounded=0;orthogonalLoop=1;jettySize=auto;html=1;entryX=0;entryY=0.5;entryDx=0;entryDy=0;" edge="1" parent="1" source="4yiWmQWdM_SpUFUc-BwU-2" target="4yiWmQWdM_SpUFUc-BwU-5">
          <mxGeometry relative="1" as="geometry" />
        </mxCell>
        <mxCell id="4yiWmQWdM_SpUFUc-BwU-2" value="&lt;font style=&quot;font-size: 21px;&quot;&gt;LOGIN&lt;/font&gt;" style="rounded=1;whiteSpace=wrap;html=1;" vertex="1" parent="1">
          <mxGeometry x="150" y="320" width="190" height="80" as="geometry" />
        </mxCell>
        <mxCell id="4yiWmQWdM_SpUFUc-BwU-3" value="&lt;font style=&quot;font-size: 21px;&quot;&gt;CONSULTAR USUARIOS&lt;/font&gt;" style="rounded=1;whiteSpace=wrap;html=1;" vertex="1" parent="1">
          <mxGeometry x="400" y="120" width="240" height="110" as="geometry" />
        </mxCell>
        <mxCell id="4yiWmQWdM_SpUFUc-BwU-4" value="&lt;font style=&quot;font-size: 21px;&quot;&gt;CONSULTAR INMUEBLES&lt;/font&gt;" style="rounded=1;whiteSpace=wrap;html=1;" vertex="1" parent="1">
          <mxGeometry x="400" y="305" width="240" height="110" as="geometry" />
        </mxCell>
        <mxCell id="4yiWmQWdM_SpUFUc-BwU-10" style="edgeStyle=orthogonalEdgeStyle;rounded=0;orthogonalLoop=1;jettySize=auto;html=1;entryX=0;entryY=0.5;entryDx=0;entryDy=0;" edge="1" parent="1" source="4yiWmQWdM_SpUFUc-BwU-5" target="4yiWmQWdM_SpUFUc-BwU-6">
          <mxGeometry relative="1" as="geometry" />
        </mxCell>
        <mxCell id="4yiWmQWdM_SpUFUc-BwU-5" value="&lt;font style=&quot;font-size: 21px;&quot;&gt;CONSULTAR RESERVAS&lt;/font&gt;" style="rounded=1;whiteSpace=wrap;html=1;" vertex="1" parent="1">
          <mxGeometry x="400" y="500" width="240" height="110" as="geometry" />
        </mxCell>
        <mxCell id="4yiWmQWdM_SpUFUc-BwU-6" value="&lt;font style=&quot;font-size: 21px;&quot;&gt;CANCELAR RESERVAS&lt;/font&gt;" style="rounded=1;whiteSpace=wrap;html=1;" vertex="1" parent="1">
          <mxGeometry x="680" y="500" width="240" height="110" as="geometry" />
        </mxCell>
      </root>
    </mxGraphModel>
  </diagram>
</mxfile>
